<svg xmlns="http://www.w3.org/2000/svg" version="1.1" xmlns:xlink="http://www.w3.org/1999/xlink" xmlns:svgjs="http://svgjs.dev/svgjs" width="1440" height="560" preserveAspectRatio="none" viewBox="0 0 1440 560"><g mask="url(&quot;#SvgjsMask1034&quot;)" fill="none"><rect width="1440" height="560" x="0" y="0" fill="#0e2a47"></rect><path d="M0,458.241C85.861,458.751,154.871,397.076,234.427,364.775C335.59,323.701,478.984,338.482,531.168,242.576C582.575,148.096,491.127,37.868,469.646,-67.525C449.705,-165.365,476.021,-280.371,409.421,-354.766C342.926,-429.044,229.914,-434.056,130.925,-445.89C44.693,-456.199,-43.001,-452.545,-122.852,-418.397C-197.269,-386.573,-240.322,-314.302,-301.281,-261.061C-374.362,-197.233,-479.692,-163.952,-516.823,-74.308C-556.55,21.603,-561.584,143.603,-504.927,230.592C-448.789,316.783,-326.417,319.727,-232.646,362.004C-154.559,397.21,-85.654,457.733,0,458.241" fill="#0b2239"></path><path d="M1440 926.071C1512.82 935.296 1595.128 936.566 1652.929 891.3240000000001 1710.003 846.65 1713.4189999999999 763.965 1735.359 694.886 1754.59 634.336 1774.186 575.592 1773.385 512.066 1772.492 441.223 1771.151 366.30899999999997 1730.487 308.29200000000003 1688.183 247.93599999999998 1621.761 197.55200000000002 1548.348 191 1477.324 184.661 1425.098 256.204 1356.285 274.893 1285.271 294.18 1190.062 246.05900000000003 1141.632 301.463 1093.26 356.8 1146.938 444.028 1144.2359999999999 517.476 1141.906 580.831 1105.671 643.254 1126.862 703.005 1148.636 764.399 1206.075 803.642 1259.131 841.437 1314.467 880.856 1372.599 917.533 1440 926.071" fill="#113255"></path></g><defs><mask id="SvgjsMask1034"><rect width="1440" height="560" fill="#ffffff"></rect></mask></defs></svg>